<mxfile host="65bd71144e" modified="2021-01-02T07:03:36.667Z" agent="5.0 (Windows NT 10.0; Win64; x64) AppleWebKit/537.36 (KHTML, like Gecko) Code/1.52.1 Chrome/83.0.4103.122 Electron/9.3.5 Safari/537.36" etag="92n1KuMfez_Yd9N62lQ2" version="13.10.0" type="embed">
    <diagram id="N8jkDLk7Amj-sibJUGd5" name="Page-1">
        <mxGraphModel dx="2583" dy="2475" grid="1" gridSize="10" guides="1" tooltips="1" connect="1" arrows="1" fold="1" page="1" pageScale="1" pageWidth="1169" pageHeight="1654" math="0" shadow="0">
            <root>
                <mxCell id="0"/>
                <mxCell id="1" parent="0"/>
                <mxCell id="133" value="" style="rounded=1;whiteSpace=wrap;html=1;fontSize=19;" vertex="1" parent="1">
                    <mxGeometry x="-180" y="10" width="460" height="340" as="geometry"/>
                </mxCell>
                <mxCell id="37" value="&lt;span style=&quot;font-family: arial, sans-serif; font-size: 13px;&quot;&gt;Young Generation&lt;/span&gt;" style="rounded=1;whiteSpace=wrap;html=1;verticalAlign=top;labelBackgroundColor=#0F0F0F;" parent="1" vertex="1">
                    <mxGeometry x="-150" y="80" width="180" height="180" as="geometry"/>
                </mxCell>
                <mxCell id="39" value="eden" style="rounded=1;whiteSpace=wrap;html=1;" parent="1" vertex="1">
                    <mxGeometry x="-116" y="110" width="120" height="60" as="geometry"/>
                </mxCell>
                <mxCell id="41" value="survivor" style="rounded=1;whiteSpace=wrap;html=1;" parent="1" vertex="1">
                    <mxGeometry x="-120" y="180" width="40" height="60" as="geometry"/>
                </mxCell>
                <mxCell id="43" value="survivor" style="rounded=1;whiteSpace=wrap;html=1;" parent="1" vertex="1">
                    <mxGeometry x="-36" y="180" width="40" height="60" as="geometry"/>
                </mxCell>
                <mxCell id="45" value="&lt;span style=&quot;font-family: monospace; font-size: 0px;&quot;&gt;%3CmxGraphModel%3E%3Croot%3E%3CmxCell%20id%3D%220%22%2F%3E%3CmxCell%20id%3D%221%22%20parent%3D%220%22%2F%3E%3CmxCell%20id%3D%222%22%20value%3D%22%26lt%3Bspan%20style%3D%26quot%3Bfont-family%3A%20arial%2C%20sans-serif%3B%20font-size%3A%2013px%3B%26quot%3B%26gt%3BYoung%20Generation%26lt%3B%2Fspan%26gt%3B%22%20style%3D%22rounded%3D1%3BwhiteSpace%3Dwrap%3Bhtml%3D1%3BverticalAlign%3Dtop%3BlabelBackgroundColor%3D%230F0F0F%3B%22%20vertex%3D%221%22%20parent%3D%221%22%3E%3CmxGeometry%20x%3D%22110%22%20y%3D%22160%22%20width%3D%22180%22%20height%3D%22180%22%20as%3D%22geometry%22%2F%3E%3C%2FmxCell%3E%3C%2Froot%3E%3C%2FmxGraphModel%3E&lt;/span&gt;&lt;span style=&quot;font-size: 16px;&quot;&gt;Tenured Generation&lt;/span&gt;" style="rounded=1;whiteSpace=wrap;html=1;verticalAlign=top;labelBackgroundColor=none;" parent="1" vertex="1">
                    <mxGeometry x="64" y="80" width="180" height="180" as="geometry"/>
                </mxCell>
                <mxCell id="46" value="default:8:1:1" style="text;html=1;strokeColor=none;fillColor=none;align=center;verticalAlign=middle;whiteSpace=wrap;rounded=0;labelBackgroundColor=none;fontColor=#f0f0f0;" parent="1" vertex="1">
                    <mxGeometry x="-80" y="280" width="40" height="20" as="geometry"/>
                </mxCell>
                <mxCell id="48" value="" style="ellipse;html=1;shape=startState;fillColor=#000000;strokeColor=#ff0000;labelBackgroundColor=none;fontColor=#f0f0f0;" parent="1" vertex="1">
                    <mxGeometry x="985" y="30" width="30" height="30" as="geometry"/>
                </mxCell>
                <mxCell id="49" value="" style="edgeStyle=orthogonalEdgeStyle;html=1;verticalAlign=bottom;endArrow=open;endSize=8;strokeColor=#ff0000;fontColor=#f0f0f0;" parent="1" source="48" edge="1">
                    <mxGeometry relative="1" as="geometry">
                        <mxPoint x="1000" y="120" as="targetPoint"/>
                    </mxGeometry>
                </mxCell>
                <mxCell id="92" style="edgeStyle=orthogonalEdgeStyle;rounded=0;orthogonalLoop=1;jettySize=auto;html=1;exitX=0.5;exitY=1;exitDx=0;exitDy=0;entryX=0.5;entryY=0;entryDx=0;entryDy=0;fontSize=12;fontColor=#f0f0f0;" parent="1" source="50" target="53" edge="1">
                    <mxGeometry relative="1" as="geometry"/>
                </mxCell>
                <mxCell id="50" value="eden 区快满&lt;br&gt;&lt;font color=&quot;#ffff66&quot;&gt;如何判断?分配对象空间时，首先判断是否有足够空间。&lt;/font&gt;" style="rounded=0;whiteSpace=wrap;html=1;labelBackgroundColor=none;fontColor=#f0f0f0;" parent="1" vertex="1">
                    <mxGeometry x="915" y="120" width="170" height="60" as="geometry"/>
                </mxCell>
                <mxCell id="93" style="edgeStyle=orthogonalEdgeStyle;rounded=0;orthogonalLoop=1;jettySize=auto;html=1;exitX=1;exitY=0.5;exitDx=0;exitDy=0;entryX=0.5;entryY=0;entryDx=0;entryDy=0;fontSize=12;fontColor=#f0f0f0;" parent="1" source="53" target="65" edge="1">
                    <mxGeometry relative="1" as="geometry"/>
                </mxCell>
                <mxCell id="102" style="edgeStyle=orthogonalEdgeStyle;rounded=0;orthogonalLoop=1;jettySize=auto;html=1;fontSize=12;fontColor=#f0f0f0;" parent="1" source="53" target="61" edge="1">
                    <mxGeometry relative="1" as="geometry"/>
                </mxCell>
                <mxCell id="53" value="当前eden区 &amp;gt; tenure 区&lt;b&gt;&lt;font color=&quot;#ff6666&quot;&gt;连续&lt;/font&gt;&lt;/b&gt;可用内存&lt;br&gt;&lt;font color=&quot;#ffff66&quot;&gt;排查极端情况，eden区对象全部存活&lt;/font&gt;" style="rhombus;whiteSpace=wrap;html=1;labelBackgroundColor=none;fontColor=#f0f0f0;" parent="1" vertex="1">
                    <mxGeometry x="890" y="240" width="220" height="120" as="geometry"/>
                </mxCell>
                <mxCell id="58" value="" style="ellipse;html=1;shape=endState;fillColor=#000000;strokeColor=#ff0000;labelBackgroundColor=none;fontColor=#f0f0f0;" parent="1" vertex="1">
                    <mxGeometry x="775" y="1790" width="30" height="30" as="geometry"/>
                </mxCell>
                <mxCell id="103" style="edgeStyle=orthogonalEdgeStyle;rounded=0;orthogonalLoop=1;jettySize=auto;html=1;entryX=0.5;entryY=0;entryDx=0;entryDy=0;fontSize=12;fontColor=#f0f0f0;" parent="1" source="61" target="66" edge="1">
                    <mxGeometry relative="1" as="geometry"/>
                </mxCell>
                <mxCell id="104" style="edgeStyle=orthogonalEdgeStyle;rounded=0;orthogonalLoop=1;jettySize=auto;html=1;fontSize=12;fontColor=#f0f0f0;" parent="1" source="61" edge="1">
                    <mxGeometry relative="1" as="geometry">
                        <mxPoint x="320" y="460" as="targetPoint"/>
                    </mxGeometry>
                </mxCell>
                <mxCell id="61" value="&lt;br&gt;&lt;br&gt;&lt;br&gt;&lt;span class=&quot;fontstyle0&quot;&gt;-XX:-&lt;br&gt;HandlePromotionFailure&lt;br&gt;是否已经设置&lt;/span&gt;&lt;br&gt;&lt;br style=&quot;font-style: normal ; font-variant: normal ; font-weight: normal ; letter-spacing: normal ; line-height: normal ; text-indent: 0px ; text-transform: none ; word-spacing: 0px&quot;&gt;&lt;br&gt;" style="rhombus;whiteSpace=wrap;html=1;labelBackgroundColor=none;fontColor=#f0f0f0;" parent="1" vertex="1">
                    <mxGeometry x="450" y="370" width="270" height="80" as="geometry"/>
                </mxCell>
                <mxCell id="105" style="edgeStyle=orthogonalEdgeStyle;rounded=0;orthogonalLoop=1;jettySize=auto;html=1;fontSize=12;fontColor=#f0f0f0;" parent="1" source="62" target="63" edge="1">
                    <mxGeometry relative="1" as="geometry"/>
                </mxCell>
                <mxCell id="110" style="edgeStyle=orthogonalEdgeStyle;rounded=0;orthogonalLoop=1;jettySize=auto;html=1;fontSize=12;fontColor=#f0f0f0;" parent="1" source="62" target="64" edge="1">
                    <mxGeometry relative="1" as="geometry"/>
                </mxCell>
                <mxCell id="62" value="&lt;span class=&quot;fontstyle0&quot;&gt;老年代的可用内存大小，&lt;br&gt;是否大于&lt;br&gt;之前每一次Minor GC后进入老年代的对象的平均大小&lt;br&gt;&lt;font color=&quot;#ffff66&quot;&gt;测算概率&lt;/font&gt;&lt;br&gt;&lt;/span&gt; " style="rhombus;whiteSpace=wrap;html=1;labelBackgroundColor=none;fontColor=#f0f0f0;" parent="1" vertex="1">
                    <mxGeometry x="160" y="460" width="310" height="200" as="geometry"/>
                </mxCell>
                <mxCell id="106" style="edgeStyle=orthogonalEdgeStyle;rounded=0;orthogonalLoop=1;jettySize=auto;html=1;entryX=0.5;entryY=0;entryDx=0;entryDy=0;fontSize=12;fontColor=#f0f0f0;" parent="1" source="63" target="67" edge="1">
                    <mxGeometry relative="1" as="geometry"/>
                </mxCell>
                <mxCell id="63" value="full gc / major gc" style="rounded=0;whiteSpace=wrap;html=1;labelBackgroundColor=none;fontColor=#f0f0f0;" parent="1" vertex="1">
                    <mxGeometry x="546" y="755" width="120" height="60" as="geometry"/>
                </mxCell>
                <mxCell id="111" style="edgeStyle=orthogonalEdgeStyle;rounded=0;orthogonalLoop=1;jettySize=auto;html=1;entryX=0.5;entryY=0;entryDx=0;entryDy=0;fontSize=12;fontColor=#f0f0f0;" parent="1" source="64" target="73" edge="1">
                    <mxGeometry relative="1" as="geometry"/>
                </mxCell>
                <mxCell id="64" value="minor gc / young gc" style="rounded=0;whiteSpace=wrap;html=1;labelBackgroundColor=none;fontColor=#f0f0f0;" parent="1" vertex="1">
                    <mxGeometry x="10" y="750" width="120" height="60" as="geometry"/>
                </mxCell>
                <mxCell id="98" style="edgeStyle=orthogonalEdgeStyle;rounded=0;orthogonalLoop=1;jettySize=auto;html=1;entryX=0.5;entryY=0;entryDx=0;entryDy=0;fontSize=12;fontColor=#f0f0f0;" parent="1" source="65" target="90" edge="1">
                    <mxGeometry relative="1" as="geometry"/>
                </mxCell>
                <mxCell id="65" value="minor gc / young gc" style="rounded=0;whiteSpace=wrap;html=1;labelBackgroundColor=none;fontColor=#f0f0f0;fontSize=12;" parent="1" vertex="1">
                    <mxGeometry x="1245" y="400" width="120" height="60" as="geometry"/>
                </mxCell>
                <mxCell id="100" style="edgeStyle=orthogonalEdgeStyle;rounded=0;orthogonalLoop=1;jettySize=auto;html=1;entryX=0.5;entryY=0;entryDx=0;entryDy=0;fontSize=12;fontColor=#f0f0f0;" parent="1" source="66" target="68" edge="1">
                    <mxGeometry relative="1" as="geometry"/>
                </mxCell>
                <mxCell id="66" value="full gc / major gc" style="rounded=0;whiteSpace=wrap;html=1;labelBackgroundColor=none;fontColor=#f0f0f0;" parent="1" vertex="1">
                    <mxGeometry x="725" y="550" width="120" height="60" as="geometry"/>
                </mxCell>
                <mxCell id="109" style="edgeStyle=orthogonalEdgeStyle;rounded=0;orthogonalLoop=1;jettySize=auto;html=1;entryX=0.472;entryY=0.006;entryDx=0;entryDy=0;entryPerimeter=0;fontSize=12;fontColor=#f0f0f0;" parent="1" source="67" target="85" edge="1">
                    <mxGeometry relative="1" as="geometry"/>
                </mxCell>
                <mxCell id="67" value="minor gc / young gc" style="rounded=0;whiteSpace=wrap;html=1;labelBackgroundColor=none;fontColor=#f0f0f0;" parent="1" vertex="1">
                    <mxGeometry x="546" y="885" width="120" height="60" as="geometry"/>
                </mxCell>
                <mxCell id="101" style="edgeStyle=orthogonalEdgeStyle;rounded=0;orthogonalLoop=1;jettySize=auto;html=1;entryX=0.5;entryY=0;entryDx=0;entryDy=0;fontSize=12;fontColor=#f0f0f0;" parent="1" source="68" edge="1">
                    <mxGeometry relative="1" as="geometry">
                        <mxPoint x="785" y="770" as="targetPoint"/>
                    </mxGeometry>
                </mxCell>
                <mxCell id="68" value="minor gc / young gc" style="rounded=0;whiteSpace=wrap;html=1;labelBackgroundColor=none;fontColor=#f0f0f0;" parent="1" vertex="1">
                    <mxGeometry x="725" y="660" width="120" height="60" as="geometry"/>
                </mxCell>
                <mxCell id="94" style="edgeStyle=orthogonalEdgeStyle;rounded=0;orthogonalLoop=1;jettySize=auto;html=1;entryX=0.5;entryY=0;entryDx=0;entryDy=0;fontSize=12;fontColor=#f0f0f0;" parent="1" source="69" target="71" edge="1">
                    <mxGeometry relative="1" as="geometry"/>
                </mxCell>
                <mxCell id="95" style="edgeStyle=orthogonalEdgeStyle;rounded=0;orthogonalLoop=1;jettySize=auto;html=1;entryX=0.5;entryY=0;entryDx=0;entryDy=0;fontSize=12;fontColor=#f0f0f0;" parent="1" source="69" target="70" edge="1">
                    <mxGeometry relative="1" as="geometry"/>
                </mxCell>
                <mxCell id="69" value="survivor区空间够存放存活对象" style="rhombus;whiteSpace=wrap;html=1;labelBackgroundColor=none;fontColor=#f0f0f0;" parent="1" vertex="1">
                    <mxGeometry x="1195" y="540" width="220" height="80" as="geometry"/>
                </mxCell>
                <mxCell id="70" value="eden区存活对象移到tenure区" style="rounded=0;whiteSpace=wrap;html=1;labelBackgroundColor=none;fontColor=#f0f0f0;" parent="1" vertex="1">
                    <mxGeometry x="1450" y="705" width="120" height="60" as="geometry"/>
                </mxCell>
                <mxCell id="71" value="eden区存活对象移至survivor区" style="rounded=0;whiteSpace=wrap;html=1;labelBackgroundColor=none;fontColor=#f0f0f0;" parent="1" vertex="1">
                    <mxGeometry x="1040" y="705" width="120" height="60" as="geometry"/>
                </mxCell>
                <mxCell id="124" style="edgeStyle=orthogonalEdgeStyle;rounded=0;orthogonalLoop=1;jettySize=auto;html=1;entryX=0.5;entryY=0;entryDx=0;entryDy=0;fontSize=12;fontColor=#f0f0f0;" parent="1" source="72" target="58" edge="1">
                    <mxGeometry relative="1" as="geometry"/>
                </mxCell>
                <mxCell id="72" value="垃圾回收结束" style="rounded=0;whiteSpace=wrap;html=1;labelBackgroundColor=none;fontColor=#f0f0f0;" parent="1" vertex="1">
                    <mxGeometry x="730" y="1660" width="120" height="60" as="geometry"/>
                </mxCell>
                <mxCell id="112" style="edgeStyle=orthogonalEdgeStyle;rounded=0;orthogonalLoop=1;jettySize=auto;html=1;fontSize=12;fontColor=#f0f0f0;" parent="1" source="73" edge="1">
                    <mxGeometry relative="1" as="geometry">
                        <mxPoint x="300" y="1030" as="targetPoint"/>
                    </mxGeometry>
                </mxCell>
                <mxCell id="115" style="edgeStyle=orthogonalEdgeStyle;rounded=0;orthogonalLoop=1;jettySize=auto;html=1;entryX=0.5;entryY=0;entryDx=0;entryDy=0;fontSize=12;fontColor=#f0f0f0;" parent="1" source="73" edge="1">
                    <mxGeometry relative="1" as="geometry">
                        <mxPoint x="-200" y="1050" as="targetPoint"/>
                    </mxGeometry>
                </mxCell>
                <mxCell id="73" value="存活对象&lt;br&gt;是否仍超过老年代可用空间" style="rhombus;whiteSpace=wrap;html=1;labelBackgroundColor=none;fontColor=#f0f0f0;" parent="1" vertex="1">
                    <mxGeometry x="-40" y="880" width="220" height="80" as="geometry"/>
                </mxCell>
                <mxCell id="114" style="edgeStyle=orthogonalEdgeStyle;rounded=0;orthogonalLoop=1;jettySize=auto;html=1;fontSize=12;fontColor=#f0f0f0;" parent="1" source="74" edge="1">
                    <mxGeometry relative="1" as="geometry">
                        <mxPoint x="300" y="1290" as="targetPoint"/>
                    </mxGeometry>
                </mxCell>
                <mxCell id="74" value="full gc / major gc" style="rounded=0;whiteSpace=wrap;html=1;labelBackgroundColor=none;fontColor=#f0f0f0;" parent="1" vertex="1">
                    <mxGeometry x="240" y="1130" width="120" height="60" as="geometry"/>
                </mxCell>
                <mxCell id="113" style="edgeStyle=orthogonalEdgeStyle;rounded=0;orthogonalLoop=1;jettySize=auto;html=1;entryX=0.5;entryY=0;entryDx=0;entryDy=0;fontSize=12;fontColor=#f0f0f0;" parent="1" source="76" target="74" edge="1">
                    <mxGeometry relative="1" as="geometry"/>
                </mxCell>
                <mxCell id="76" value="&lt;span class=&quot;fontstyle0&quot;&gt;发生Handle Promotion Failure情况&lt;/span&gt;&amp;nbsp;&amp;nbsp;" style="rounded=0;whiteSpace=wrap;html=1;labelBackgroundColor=none;fontColor=#f0f0f0;" parent="1" vertex="1">
                    <mxGeometry x="240" y="1031" width="120" height="60" as="geometry"/>
                </mxCell>
                <mxCell id="107" style="edgeStyle=orthogonalEdgeStyle;rounded=0;orthogonalLoop=1;jettySize=auto;html=1;fontSize=12;fontColor=#f0f0f0;" parent="1" source="77" edge="1">
                    <mxGeometry relative="1" as="geometry">
                        <mxPoint x="450" y="1170" as="targetPoint"/>
                    </mxGeometry>
                </mxCell>
                <mxCell id="108" style="edgeStyle=orthogonalEdgeStyle;rounded=0;orthogonalLoop=1;jettySize=auto;html=1;fontSize=12;fontColor=#f0f0f0;" parent="1" source="77" edge="1">
                    <mxGeometry relative="1" as="geometry">
                        <mxPoint x="790" y="1170" as="targetPoint"/>
                    </mxGeometry>
                </mxCell>
                <mxCell id="77" value="是否够存放minor过后的存活对象" style="rhombus;whiteSpace=wrap;html=1;labelBackgroundColor=none;fontColor=#f0f0f0;" parent="1" vertex="1">
                    <mxGeometry x="496" y="1021" width="220" height="80" as="geometry"/>
                </mxCell>
                <mxCell id="78" value="promotion放到老年代" style="rounded=0;whiteSpace=wrap;html=1;labelBackgroundColor=none;fontColor=#f0f0f0;" parent="1" vertex="1">
                    <mxGeometry x="390" y="1170" width="120" height="60" as="geometry"/>
                </mxCell>
                <mxCell id="79" value="out of memery内存溢出" style="rounded=0;whiteSpace=wrap;html=1;labelBackgroundColor=none;fontColor=#f0f0f0;" parent="1" vertex="1">
                    <mxGeometry x="730" y="1170" width="120" height="60" as="geometry"/>
                </mxCell>
                <mxCell id="121" style="edgeStyle=orthogonalEdgeStyle;rounded=0;orthogonalLoop=1;jettySize=auto;html=1;entryX=0.5;entryY=0;entryDx=0;entryDy=0;fontSize=12;fontColor=#f0f0f0;" parent="1" source="85" target="72" edge="1">
                    <mxGeometry relative="1" as="geometry"/>
                </mxCell>
                <mxCell id="85" value="full gc 后逻辑" style="rounded=1;whiteSpace=wrap;html=1;labelBackgroundColor=none;fontSize=12;fontColor=#ffffff;opacity=40;strokeWidth=3;strokeColor=#3A5431;perimeterSpacing=2;fillColor=#6d8764;align=right;verticalAlign=top;" parent="1" vertex="1">
                    <mxGeometry x="380" y="1021" width="480" height="229" as="geometry"/>
                </mxCell>
                <mxCell id="119" style="edgeStyle=orthogonalEdgeStyle;rounded=0;orthogonalLoop=1;jettySize=auto;html=1;entryX=0.5;entryY=0;entryDx=0;entryDy=0;fontSize=12;fontColor=#f0f0f0;" parent="1" target="72" edge="1">
                    <mxGeometry relative="1" as="geometry">
                        <mxPoint x="300" y="1350" as="sourcePoint"/>
                        <Array as="points">
                            <mxPoint x="300" y="1560"/>
                            <mxPoint x="790" y="1560"/>
                        </Array>
                    </mxGeometry>
                </mxCell>
                <mxCell id="122" style="edgeStyle=orthogonalEdgeStyle;rounded=0;orthogonalLoop=1;jettySize=auto;html=1;fontSize=12;fontColor=#f0f0f0;" parent="1" edge="1">
                    <mxGeometry relative="1" as="geometry">
                        <mxPoint x="790" y="1650" as="targetPoint"/>
                        <mxPoint x="845" y="800" as="sourcePoint"/>
                        <Array as="points">
                            <mxPoint x="1010" y="800"/>
                            <mxPoint x="1010" y="1520"/>
                            <mxPoint x="790" y="1520"/>
                        </Array>
                    </mxGeometry>
                </mxCell>
                <mxCell id="123" style="edgeStyle=orthogonalEdgeStyle;rounded=0;orthogonalLoop=1;jettySize=auto;html=1;entryX=0.5;entryY=0;entryDx=0;entryDy=0;fontSize=12;fontColor=#f0f0f0;" parent="1" source="90" target="72" edge="1">
                    <mxGeometry relative="1" as="geometry">
                        <Array as="points">
                            <mxPoint x="1390" y="1600"/>
                            <mxPoint x="790" y="1600"/>
                        </Array>
                    </mxGeometry>
                </mxCell>
                <mxCell id="90" value="minor gc 后未超tenure区逻辑" style="rounded=1;whiteSpace=wrap;html=1;labelBackgroundColor=none;strokeWidth=3;fontSize=12;fontColor=#f0f0f0;opacity=40;align=right;strokeColor=#FF5926;fillColor=#2A0A07;verticalAlign=top;" parent="1" vertex="1">
                    <mxGeometry x="1020" y="540" width="570" height="250" as="geometry"/>
                </mxCell>
                <mxCell id="118" style="edgeStyle=orthogonalEdgeStyle;rounded=0;orthogonalLoop=1;jettySize=auto;html=1;entryX=0;entryY=0.5;entryDx=0;entryDy=0;fontSize=12;fontColor=#f0f0f0;" parent="1" target="72" edge="1">
                    <mxGeometry relative="1" as="geometry">
                        <mxPoint x="-200" y="1110" as="sourcePoint"/>
                        <Array as="points">
                            <mxPoint x="-200" y="1690"/>
                        </Array>
                    </mxGeometry>
                </mxCell>
                <mxCell id="126" value="full gc 后逻辑" style="rounded=1;whiteSpace=wrap;html=1;labelBackgroundColor=none;fontSize=12;fontColor=#ffffff;opacity=40;strokeWidth=3;strokeColor=#3A5431;perimeterSpacing=2;fillColor=#6d8764;align=center;verticalAlign=middle;" parent="1" vertex="1">
                    <mxGeometry x="729" y="767" width="112" height="60" as="geometry"/>
                </mxCell>
                <mxCell id="127" value="full gc 后逻辑" style="rounded=1;whiteSpace=wrap;html=1;labelBackgroundColor=none;fontSize=12;fontColor=#ffffff;opacity=40;strokeWidth=3;strokeColor=#3A5431;perimeterSpacing=2;fillColor=#6d8764;align=center;verticalAlign=middle;" parent="1" vertex="1">
                    <mxGeometry x="244" y="1290" width="112" height="60" as="geometry"/>
                </mxCell>
                <mxCell id="129" value="minor gc 后未超tenure区逻辑" style="rounded=1;whiteSpace=wrap;html=1;labelBackgroundColor=none;strokeWidth=3;fontSize=12;fontColor=#f0f0f0;opacity=40;align=center;strokeColor=#FF5926;fillColor=#2A0A07;verticalAlign=middle;" parent="1" vertex="1">
                    <mxGeometry x="-260" y="1050" width="120" height="60" as="geometry"/>
                </mxCell>
                <mxCell id="144" style="edgeStyle=orthogonalEdgeStyle;rounded=0;orthogonalLoop=1;jettySize=auto;html=1;fontSize=19;fontColor=#ffffff;" edge="1" parent="1" source="148" target="45">
                    <mxGeometry relative="1" as="geometry">
                        <Array as="points"/>
                    </mxGeometry>
                </mxCell>
                <mxCell id="130" value="&lt;span&gt;垃圾回收器 CMS&lt;/span&gt;" style="rounded=1;whiteSpace=wrap;html=1;fillColor=#d80073;strokeColor=#A50040;fontColor=#ffffff;fontSize=19;" vertex="1" parent="1">
                    <mxGeometry x="630" y="40" width="190" height="60" as="geometry"/>
                </mxCell>
                <mxCell id="140" style="edgeStyle=orthogonalEdgeStyle;rounded=0;orthogonalLoop=1;jettySize=auto;html=1;entryX=0.5;entryY=0;entryDx=0;entryDy=0;fontSize=19;fontColor=#ffffff;" edge="1" parent="1" source="134" target="138">
                    <mxGeometry relative="1" as="geometry"/>
                </mxCell>
                <mxCell id="142" style="edgeStyle=orthogonalEdgeStyle;rounded=0;orthogonalLoop=1;jettySize=auto;html=1;fontSize=19;fontColor=#ffffff;" edge="1" parent="1" source="134" target="130">
                    <mxGeometry relative="1" as="geometry"/>
                </mxCell>
                <mxCell id="134" value="垃圾回收线程" style="rounded=1;whiteSpace=wrap;html=1;fontSize=12;" vertex="1" parent="1">
                    <mxGeometry x="540" y="-70" width="120" height="60" as="geometry"/>
                </mxCell>
                <mxCell id="143" style="edgeStyle=orthogonalEdgeStyle;rounded=0;orthogonalLoop=1;jettySize=auto;html=1;entryX=0.5;entryY=0;entryDx=0;entryDy=0;fontSize=19;fontColor=#ffffff;" edge="1" parent="1" source="146" target="37">
                    <mxGeometry relative="1" as="geometry">
                        <Array as="points">
                            <mxPoint x="-60" y="60"/>
                        </Array>
                    </mxGeometry>
                </mxCell>
                <mxCell id="138" value="垃圾回收器 PraNew" style="rounded=1;whiteSpace=wrap;html=1;strokeColor=#A50040;fillColor=#d80073;fontSize=19;fontColor=#ffffff;" vertex="1" parent="1">
                    <mxGeometry x="310" y="40" width="190" height="60" as="geometry"/>
                </mxCell>
                <mxCell id="146" value="垃圾回收算法" style="text;html=1;strokeColor=none;fillColor=none;align=center;verticalAlign=middle;whiteSpace=wrap;rounded=0;fontSize=19;fontColor=#ffffff;" vertex="1" parent="1">
                    <mxGeometry x="80" y="50" width="130" height="20" as="geometry"/>
                </mxCell>
                <mxCell id="147" style="edgeStyle=orthogonalEdgeStyle;rounded=0;orthogonalLoop=1;jettySize=auto;html=1;entryX=0.5;entryY=0;entryDx=0;entryDy=0;fontSize=19;fontColor=#ffffff;" edge="1" parent="1" source="138" target="146">
                    <mxGeometry relative="1" as="geometry">
                        <mxPoint x="310" y="60" as="sourcePoint"/>
                        <mxPoint x="-60" y="80" as="targetPoint"/>
                        <Array as="points"/>
                    </mxGeometry>
                </mxCell>
                <mxCell id="148" value="垃圾回收算法 stop the world" style="text;html=1;strokeColor=none;fillColor=none;align=center;verticalAlign=middle;whiteSpace=wrap;rounded=0;fontSize=19;fontColor=#ffffff;" vertex="1" parent="1">
                    <mxGeometry x="450" y="160" width="130" height="20" as="geometry"/>
                </mxCell>
                <mxCell id="149" style="edgeStyle=orthogonalEdgeStyle;rounded=0;orthogonalLoop=1;jettySize=auto;html=1;fontSize=19;fontColor=#ffffff;" edge="1" parent="1" source="130" target="148">
                    <mxGeometry relative="1" as="geometry">
                        <mxPoint x="725" y="100" as="sourcePoint"/>
                        <mxPoint x="244" y="170" as="targetPoint"/>
                        <Array as="points">
                            <mxPoint x="725" y="170"/>
                        </Array>
                    </mxGeometry>
                </mxCell>
            </root>
        </mxGraphModel>
    </diagram>
</mxfile>